<svg id="Capa_1" data-name="Capa 1" xmlns="http://www.w3.org/2000/svg" viewBox="0 0 595.28 841.89"><defs><style>.cls-1{fill:#aac29e;}</style></defs><path class="cls-1" d="M161.4,405.21c-9.07-3.89-17-8.14-23.9-14-13.28-11.16-22.82-24.62-23.93-42.48-1.73-27.81,17.46-50.65,45.1-54.94,18.3-2.84,34.15,3.27,49.52,12,18.09,10.27,33,24.55,48.47,38.17,11.35,10,21,21.76,32.27,31.84a110.4,110.4,0,0,0,11.91,9.68c1.73,1.17,3.58,2.13,5.49.59s1.12-3.63.27-5.44c-3.85-8.11-9.58-14.9-15.62-21.39-19.42-20.84-39.84-40.74-58.4-62.37-12.44-14.48-23.31-30-28.3-48.83-5.53-20.86-3.06-40.37,11.94-56.73,20.57-22.43,52.53-24.21,77.13-5,10.46,8.17,17.88,18.72,24.41,30,1.1,1.91,2.28,3.77,3.69,6.11,3.43-5.39,6.43-10.38,9.7-15.19,9.09-13.35,20.16-24.48,35.53-30.52,32-12.56,66.08,5.81,73.34,39.4,4.11,19-.88,36.31-9.66,52.94C422,285,409.82,297.9,397.85,311c-18.26,20-38.12,38.57-55.8,59.15a68.05,68.05,0,0,0-7.57,10.22c-.94,1.63-1.88,3.39-.34,5.19s3.74,1.75,5.83.9a29.64,29.64,0,0,0,7.81-5.1c8.64-7.23,16.24-15.53,24.23-23.44,19.57-19.35,39.88-37.89,63.42-52.38,19.68-12.1,40.86-16,63.15-8.45a51.68,51.68,0,0,1,34.92,50.76c-.54,14.63-7,26.83-17.25,37.16a88.81,88.81,0,0,1-25.94,18.15c-1.22.57-2.62.85-3.68,2.17,6.73,2.83,13.27,5.85,19.1,10.16,15.78,11.65,26,26.55,26.41,46.78.58,25.74-20.35,49.88-45.91,53.67-17.42,2.58-33.47-.92-48.53-9.74a240,240,0,0,1-48.63-37.89c-11.47-11.5-22.83-23.11-34.34-34.57-4.07-4.05-8.43-7.81-12.68-11.67-2.45-2.24-5.1-3.28-8-.76-3,2.65-1.67,5.41.1,8,7.89,11.46,17.24,21.71,27,31.55,16.11,16.23,32.41,32.27,46.45,50.4,10.67,13.78,19.36,28.57,22.23,46,3.59,21.87-1.72,40.91-20.09,54.5-21.14,15.64-51.45,11.45-70.26-9a86.37,86.37,0,0,1-15.79-25.28c-.83-1.94-1.61-3.9-2.59-6.27-2.73,5.89-4.86,11.64-8.08,16.85-10.3,16.66-24.19,28.55-43.89,32.25-34.53,6.5-64.57-21.35-61.13-56.3,1.8-18.3,9.84-33.93,20.56-48.29,13.79-18.47,30.31-34.52,46.58-50.76,9.37-9.35,18.63-18.82,27.18-28.95a39.46,39.46,0,0,0,5.95-9.49c.91-2,1.3-4.14-.63-5.85s-3.79-.51-5.41.64c-6.85,4.87-12.78,10.8-18.74,16.66-17,16.73-33.19,34.33-51.83,49.33C218.4,498,204.6,507.81,188.16,513.25c-33.28,11-67.06-9-72.45-43.59-2.75-17.65,4-32.58,16-45.35C139.74,415.67,149.72,409.83,161.4,405.21Z"/><path class="cls-1" d="M52.67,445.74q0-35.4,0-70.81c0-6.63.06-6.68,6.65-6.63,11.62.07,23.23.25,34.84.26a8.74,8.74,0,0,1,8.44,5.05c5.68,10.72,13.47,19.75,22.35,27.93,3.57,3.29,3.53,4-.13,7.37-10.42,9.47-18.91,20.37-22.9,34-11,37.49,8.83,70.73,42.32,84.34a83,83,0,0,0,18.7,5.12c3.26.5,4.82,2.16,4.9,5.46.1,4,.51,8,.58,12,.09,5-.6,5.57-5.61,5.53-24.35-.18-48.7-.31-73-.58-13.05-.14-23.29-5.84-30.75-16.43a37.66,37.66,0,0,1-6.84-22.17q0-35.22,0-70.44Z"/><path class="cls-1" d="M134,237.71q22.48,0,45,0c5.32,0,6.21.78,7.16,6a114.7,114.7,0,0,0,12,33.26c.88,1.65,3.07,3.41,1.41,5.32-1.46,1.68-3.52.09-5.22-.47-24.37-8-47.45-5.69-69,8.53a76.73,76.73,0,0,0-16.12,14.45,7,7,0,0,1-5.73,2.83c-15.61,0-31.22,0-46.83,0-1.77,0-3.75.08-3.75-2.49,0-13.68-2.11-27.55,1.68-40.95,4.33-15.34,19-26.21,34.89-26.47,14.86-.25,29.72-.06,44.58-.06Z"/></svg>